<svg data-v-5f19e91b="" xmlns="http://www.w3.org/2000/svg" width="515" height="86" viewBox="0 0 515 86"><!----> <!----> <!----> <g data-v-5f19e91b="" id="cf79e8b2-4ddd-18fb-c5ec-2c7a7903a4b3" fill="black" transform="matrix(4.243281654165035,0,0,4.243281654165035,97.05422966992444,-0.41004546760039773)"><path d="M5.71 4.45L5.71 12.17L5.71 12.17Q5.71 12.46 5.79 12.64L5.79 12.64L5.79 12.64Q5.86 12.82 6.00 12.93L6.00 12.93L6.00 12.93Q6.13 13.03 6.34 13.07L6.34 13.07L6.34 13.07Q6.55 13.10 6.83 13.10L6.83 13.10L6.83 13.10Q7.28 13.10 7.64 13.01L7.64 13.01L7.64 13.01Q8.00 12.92 8.28 12.81L8.28 12.81L8.28 12.81Q8.55 12.69 8.74 12.60L8.74 12.60L8.74 12.60Q8.93 12.50 9.03 12.50L9.03 12.50L9.03 12.50Q9.16 12.50 9.24 12.58L9.24 12.58L9.24 12.58Q9.31 12.67 9.31 12.82L9.31 12.82L9.31 12.82Q9.31 13.10 9.26 13.22L9.26 13.22L9.26 13.22Q9.20 13.34 9.03 13.40L9.03 13.40L9.03 13.40Q8.41 13.62 7.63 13.72L7.63 13.72L7.63 13.72Q6.85 13.83 5.87 13.83L5.87 13.83L5.87 13.83Q5.13 13.83 4.67 13.76L4.67 13.76L4.67 13.76Q4.20 13.70 3.94 13.54L3.94 13.54L3.94 13.54Q3.67 13.37 3.57 13.09L3.57 13.09L3.57 13.09Q3.47 12.80 3.47 12.36L3.47 12.36L3.47 4.59L3.47 4.59Q3.47 4.44 3.44 4.35L3.44 4.35L3.44 4.35Q3.40 4.27 3.34 4.21L3.34 4.21L3.34 4.21Q3.28 4.16 3.20 4.15L3.20 4.15L3.20 4.15Q3.11 4.13 3.01 4.13L3.01 4.13L3.01 4.13Q2.86 4.13 2.64 4.18L2.64 4.18L2.64 4.18Q2.41 4.22 2.17 4.32L2.17 4.32L2.17 4.32Q1.92 4.42 1.67 4.56L1.67 4.56L1.67 4.56Q1.42 4.70 1.23 4.87L1.23 4.87L1.23 4.87Q1.03 5.05 0.91 5.27L0.91 5.27L0.91 5.27Q0.79 5.49 0.79 5.74L0.79 5.74L0.79 5.74Q0.79 5.96 0.84 6.09L0.84 6.09L0.84 6.09Q0.90 6.22 0.98 6.29L0.98 6.29L0.98 6.29Q1.05 6.35 1.13 6.37L1.13 6.37L1.13 6.37Q1.21 6.38 1.24 6.38L1.24 6.38L1.24 6.38Q1.42 6.38 1.52 6.33L1.52 6.33L1.52 6.33Q1.63 6.27 1.72 6.20L1.72 6.20L1.72 6.20Q1.81 6.14 1.89 6.08L1.89 6.08L1.89 6.08Q1.97 6.02 2.07 6.02L2.07 6.02L2.07 6.02Q2.15 6.02 2.25 6.06L2.25 6.06L2.25 6.06Q2.34 6.10 2.42 6.18L2.42 6.18L2.42 6.18Q2.50 6.26 2.55 6.40L2.55 6.40L2.55 6.40Q2.60 6.53 2.60 6.72L2.60 6.72L2.60 6.72Q2.60 6.99 2.50 7.19L2.50 7.19L2.50 7.19Q2.39 7.39 2.23 7.52L2.23 7.52L2.23 7.52Q2.06 7.66 1.84 7.72L1.84 7.72L1.84 7.72Q1.63 7.79 1.42 7.79L1.42 7.79L1.42 7.79Q1.09 7.79 0.82 7.67L0.82 7.67L0.82 7.67Q0.56 7.56 0.38 7.36L0.38 7.36L0.38 7.36Q0.19 7.16 0.10 6.90L0.10 6.90L0.10 6.90Q0 6.63 0 6.33L0 6.33L0 6.33Q0 5.86 0.17 5.47L0.17 5.47L0.17 5.47Q0.34 5.07 0.64 4.76L0.64 4.76L0.64 4.76Q0.94 4.44 1.34 4.21L1.34 4.21L1.34 4.21Q1.74 3.97 2.20 3.81L2.20 3.81L2.20 3.81Q2.67 3.66 3.17 3.58L3.17 3.58L3.17 3.58Q3.68 3.50 4.18 3.50L4.18 3.50L4.18 3.50Q4.74 3.50 5.06 3.61L5.06 3.61L5.06 3.61Q5.37 3.71 5.51 3.86L5.51 3.86L5.51 3.86Q5.66 4.01 5.69 4.18L5.69 4.18L5.69 4.18Q5.71 4.34 5.71 4.45L5.71 4.45ZM12.20 7.76L12.20 13.10L12.20 13.10Q12.20 13.19 12.17 13.32L12.17 13.32L12.17 13.32Q12.14 13.45 12.03 13.56L12.03 13.56L12.03 13.56Q11.92 13.67 11.70 13.75L11.70 13.75L11.70 13.75Q11.49 13.83 11.13 13.83L11.13 13.83L11.13 13.83Q10.77 13.83 10.56 13.74L10.56 13.74L10.56 13.74Q10.36 13.66 10.25 13.54L10.25 13.54L10.25 13.54Q10.15 13.43 10.13 13.30L10.13 13.30L10.13 13.30Q10.10 13.18 10.10 13.10L10.10 13.10L10.10 7.83L10.10 7.83Q10.10 7.63 10.01 7.48L10.01 7.48L10.01 7.48Q9.92 7.33 9.70 7.33L9.70 7.33L9.70 7.33Q9.58 7.33 9.50 7.38L9.50 7.38L9.50 7.38Q9.42 7.42 9.32 7.49L9.32 7.49L9.18 7.32L9.18 7.32Q9.34 7.19 9.53 7.06L9.53 7.06L9.53 7.06Q9.73 6.94 9.95 6.84L9.95 6.84L9.95 6.84Q10.18 6.75 10.44 6.69L10.44 6.69L10.44 6.69Q10.70 6.62 10.99 6.62L10.99 6.62L10.99 6.62Q11.43 6.62 11.68 6.74L11.68 6.74L11.68 6.74Q11.92 6.86 12.04 7.04L12.04 7.04L12.04 7.04Q12.15 7.21 12.18 7.41L12.18 7.41L12.18 7.41Q12.20 7.61 12.20 7.76L12.20 7.76ZM9.89 5.07L9.89 5.07L9.89 5.07Q9.89 4.87 9.98 4.70L9.98 4.70L9.98 4.70Q10.06 4.53 10.22 4.40L10.22 4.40L10.22 4.40Q10.37 4.27 10.57 4.19L10.57 4.19L10.57 4.19Q10.77 4.12 11.01 4.12L11.01 4.12L11.01 4.12Q11.25 4.12 11.45 4.19L11.45 4.19L11.45 4.19Q11.65 4.27 11.80 4.40L11.80 4.40L11.80 4.40Q11.95 4.53 12.03 4.70L12.03 4.70L12.03 4.70Q12.12 4.87 12.12 5.07L12.12 5.07L12.12 5.07Q12.12 5.26 12.03 5.43L12.03 5.43L12.03 5.43Q11.95 5.61 11.80 5.73L11.80 5.73L11.80 5.73Q11.65 5.86 11.45 5.93L11.45 5.93L11.45 5.93Q11.25 6.01 11.01 6.01L11.01 6.01L11.01 6.01Q10.77 6.01 10.57 5.93L10.57 5.93L10.57 5.93Q10.37 5.86 10.22 5.73L10.22 5.73L10.22 5.73Q10.06 5.61 9.98 5.43L9.98 5.43L9.98 5.43Q9.89 5.26 9.89 5.07ZM14.01 16.50L14.01 7.83L14.01 7.83Q14.01 7.63 13.91 7.48L13.91 7.48L13.91 7.48Q13.82 7.33 13.60 7.33L13.60 7.33L13.60 7.33Q13.49 7.33 13.41 7.38L13.41 7.38L13.41 7.38Q13.32 7.42 13.23 7.49L13.23 7.49L13.08 7.32L13.08 7.32Q13.24 7.19 13.44 7.06L13.44 7.06L13.44 7.06Q13.63 6.94 13.86 6.84L13.86 6.84L13.86 6.84Q14.08 6.75 14.34 6.69L14.34 6.69L14.34 6.69Q14.60 6.62 14.89 6.62L14.89 6.62L14.89 6.62Q15.20 6.62 15.42 6.72L15.42 6.72L15.42 6.72Q15.63 6.82 15.78 6.95L15.78 6.95L15.78 6.95Q15.93 7.08 16.00 7.23L16.00 7.23L16.00 7.23Q16.08 7.38 16.09 7.48L16.09 7.48L16.09 7.48Q16.23 7.29 16.42 7.13L16.42 7.13L16.42 7.13Q16.60 6.97 16.83 6.86L16.83 6.86L16.83 6.86Q17.05 6.75 17.30 6.69L17.30 6.69L17.30 6.69Q17.55 6.62 17.81 6.62L17.81 6.62L17.81 6.62Q18.36 6.62 18.81 6.85L18.81 6.85L18.81 6.85Q19.25 7.08 19.57 7.52L19.57 7.52L19.57 7.52Q19.89 7.96 20.06 8.62L20.06 8.62L20.06 8.62Q20.23 9.28 20.23 10.14L20.23 10.14L20.23 10.14Q20.23 11.14 20.02 11.84L20.02 11.84L20.02 11.84Q19.81 12.54 19.47 12.98L19.47 12.98L19.47 12.98Q19.13 13.43 18.70 13.63L18.70 13.63L18.70 13.63Q18.27 13.83 17.81 13.83L17.81 13.83L17.81 13.83Q17.44 13.83 17.15 13.75L17.15 13.75L17.15 13.75Q16.87 13.68 16.67 13.57L16.67 13.57L16.67 13.57Q16.46 13.46 16.32 13.35L16.32 13.35L16.32 13.35Q16.19 13.23 16.11 13.16L16.11 13.16L16.11 16.50L16.11 16.50Q16.11 16.58 16.08 16.71L16.08 16.71L16.08 16.71Q16.05 16.83 15.94 16.94L15.94 16.94L15.94 16.94Q15.84 17.06 15.63 17.14L15.63 17.14L15.63 17.14Q15.42 17.22 15.06 17.22L15.06 17.22L15.06 17.22Q14.70 17.22 14.49 17.13L14.49 17.13L14.49 17.13Q14.28 17.05 14.17 16.93L14.17 16.93L14.17 16.93Q14.06 16.81 14.03 16.69L14.03 16.69L14.03 16.69Q14.01 16.57 14.01 16.50L14.01 16.50ZM16.11 8.37L16.11 12.18L16.11 12.18Q16.11 12.24 16.15 12.37L16.15 12.37L16.15 12.37Q16.20 12.51 16.30 12.65L16.30 12.65L16.30 12.65Q16.41 12.80 16.57 12.91L16.57 12.91L16.57 12.91Q16.73 13.02 16.96 13.02L16.96 13.02L16.96 13.02Q17.26 13.02 17.47 12.79L17.47 12.79L17.47 12.79Q17.68 12.56 17.82 12.17L17.82 12.17L17.82 12.17Q17.96 11.78 18.02 11.26L18.02 11.26L18.02 11.26Q18.08 10.73 18.08 10.14L18.08 10.14L18.08 10.14Q18.08 9.41 18.00 8.90L18.00 8.90L18.00 8.90Q17.92 8.39 17.77 8.08L17.77 8.08L17.77 8.08Q17.62 7.77 17.41 7.63L17.41 7.63L17.41 7.63Q17.21 7.49 16.95 7.49L16.95 7.49L16.95 7.49Q16.80 7.49 16.65 7.58L16.65 7.58L16.65 7.58Q16.50 7.66 16.38 7.79L16.38 7.79L16.38 7.79Q16.26 7.92 16.18 8.07L16.18 8.07L16.18 8.07Q16.11 8.23 16.11 8.37L16.11 8.37ZM23.72 7.17L23.72 7.17L23.72 7.17Q23.56 7.17 23.42 7.21L23.42 7.21L23.42 7.21Q23.28 7.25 23.17 7.35L23.17 7.35L23.17 7.35Q23.06 7.44 23.00 7.58L23.00 7.58L23.00 7.58Q22.94 7.72 22.94 7.91L22.94 7.91L22.94 7.91Q22.94 8.18 23.14 8.44L23.14 8.44L23.14 8.44Q23.33 8.70 23.62 8.99L23.62 8.99L23.62 8.99Q23.91 9.27 24.25 9.57L24.25 9.57L24.25 9.57Q24.59 9.88 24.88 10.22L24.88 10.22L24.88 10.22Q25.17 10.55 25.36 10.94L25.36 10.94L25.36 10.94Q25.56 11.32 25.56 11.76L25.56 11.76L25.56 11.76Q25.56 12.25 25.39 12.63L25.39 12.63L25.39 12.63Q25.22 13.02 24.91 13.28L24.91 13.28L24.91 13.28Q24.60 13.55 24.16 13.69L24.16 13.69L24.16 13.69Q23.72 13.83 23.18 13.83L23.18 13.83L23.18 13.83Q22.71 13.83 22.33 13.70L22.33 13.70L22.33 13.70Q21.94 13.56 21.65 13.37L21.65 13.37L21.65 13.37Q21.35 13.17 21.14 12.95L21.14 12.95L21.14 12.95Q20.92 12.74 20.81 12.56L20.81 12.56L21.05 12.39L21.05 12.39Q21.14 12.49 21.27 12.61L21.27 12.61L21.27 12.61Q21.41 12.73 21.58 12.83L21.58 12.83L21.58 12.83Q21.75 12.93 21.94 13.00L21.94 13.00L21.94 13.00Q22.13 13.06 22.33 13.06L22.33 13.06L22.33 13.06Q22.82 13.06 23.13 12.83L23.13 12.83L23.13 12.83Q23.45 12.59 23.45 12.13L23.45 12.13L23.45 12.13Q23.45 11.87 23.28 11.59L23.28 11.59L23.28 11.59Q23.11 11.31 22.85 11.02L22.85 11.02L22.85 11.02Q22.59 10.73 22.29 10.41L22.29 10.41L22.29 10.41Q21.98 10.10 21.72 9.76L21.72 9.76L21.72 9.76Q21.46 9.43 21.29 9.07L21.29 9.07L21.29 9.07Q21.12 8.72 21.12 8.33L21.12 8.33L21.12 8.33Q21.12 7.90 21.30 7.58L21.30 7.58L21.30 7.58Q21.47 7.26 21.76 7.05L21.76 7.05L21.76 7.05Q22.05 6.84 22.43 6.73L22.43 6.73L22.43 6.73Q22.80 6.62 23.19 6.62L23.19 6.62L23.19 6.62Q23.65 6.62 24.03 6.71L24.03 6.71L24.03 6.71Q24.40 6.79 24.67 6.96L24.67 6.96L24.67 6.96Q24.94 7.12 25.09 7.38L25.09 7.38L25.09 7.38Q25.24 7.63 25.24 7.96L25.24 7.96L25.24 7.96Q25.24 8.22 25.07 8.42L25.07 8.42L25.07 8.42Q24.90 8.61 24.59 8.61L24.59 8.61L24.59 8.61Q24.29 8.61 24.14 8.48L24.14 8.48L24.14 8.48Q23.99 8.35 23.99 8.13L23.99 8.13L23.99 8.13Q23.99 7.99 24.06 7.91L24.06 7.91L24.06 7.91Q24.13 7.83 24.22 7.78L24.22 7.78L24.22 7.78Q24.31 7.72 24.38 7.69L24.38 7.69L24.38 7.69Q24.45 7.65 24.45 7.59L24.45 7.59L24.45 7.59Q24.45 7.40 24.25 7.28L24.25 7.28L24.25 7.28Q24.04 7.17 23.72 7.17ZM32.81 7.62L32.81 12.53L32.81 12.53Q32.81 12.59 32.81 12.66L32.81 12.66L32.81 12.66Q32.82 12.74 32.85 12.80L32.85 12.80L32.85 12.80Q32.87 12.87 32.93 12.91L32.93 12.91L32.93 12.91Q32.98 12.95 33.09 12.95L33.09 12.95L33.09 12.95Q33.22 12.95 33.32 12.85L33.32 12.85L33.32 12.85Q33.42 12.76 33.51 12.67L33.51 12.67L33.67 12.81L33.67 12.81Q33.57 12.95 33.42 13.13L33.42 13.13L33.42 13.13Q33.26 13.30 33.04 13.46L33.04 13.46L33.04 13.46Q32.83 13.62 32.55 13.72L32.55 13.72L32.55 13.72Q32.27 13.83 31.91 13.83L31.91 13.83L31.91 13.83Q31.61 13.83 31.39 13.75L31.39 13.75L31.39 13.75Q31.17 13.67 31.01 13.54L31.01 13.54L31.01 13.54Q30.86 13.41 30.78 13.22L30.78 13.22L30.78 13.22Q30.71 13.04 30.71 12.84L30.71 12.84L30.71 12.53L30.71 12.53Q30.37 12.90 29.99 13.18L29.99 13.18L29.99 13.18Q29.83 13.30 29.64 13.42L29.64 13.42L29.64 13.42Q29.46 13.54 29.26 13.63L29.26 13.63L29.26 13.63Q29.06 13.72 28.85 13.77L28.85 13.77L28.85 13.77Q28.64 13.83 28.42 13.83L28.42 13.83L28.42 13.83Q28.01 13.83 27.72 13.68L27.72 13.68L27.72 13.68Q27.43 13.54 27.25 13.30L27.25 13.30L27.25 13.30Q27.08 13.06 27.00 12.76L27.00 12.76L27.00 12.76Q26.91 12.46 26.91 12.15L26.91 12.15L26.91 7.92L26.91 7.92Q26.91 7.86 26.91 7.79L26.91 7.79L26.91 7.79Q26.90 7.72 26.87 7.65L26.87 7.65L26.87 7.65Q26.84 7.59 26.79 7.55L26.79 7.55L26.79 7.55Q26.74 7.51 26.63 7.51L26.63 7.51L26.63 7.51Q26.51 7.51 26.40 7.60L26.40 7.60L26.40 7.60Q26.30 7.69 26.22 7.79L26.22 7.79L26.04 7.64L26.04 7.64Q26.15 7.50 26.30 7.32L26.30 7.32L26.30 7.32Q26.46 7.15 26.67 6.99L26.67 6.99L26.67 6.99Q26.89 6.84 27.18 6.73L27.18 6.73L27.18 6.73Q27.46 6.62 27.81 6.62L27.81 6.62L27.81 6.62Q28.11 6.62 28.33 6.70L28.33 6.70L28.33 6.70Q28.56 6.78 28.71 6.91L28.71 6.91L28.71 6.91Q28.86 7.05 28.94 7.23L28.94 7.23L28.94 7.23Q29.01 7.41 29.01 7.62L29.01 7.62L29.01 12.18L29.01 12.18Q29.01 12.28 29.04 12.38L29.04 12.38L29.04 12.38Q29.07 12.48 29.13 12.56L29.13 12.56L29.13 12.56Q29.19 12.64 29.28 12.69L29.28 12.69L29.28 12.69Q29.37 12.74 29.49 12.74L29.49 12.74L29.49 12.74Q29.69 12.74 29.89 12.64L29.89 12.64L29.89 12.64Q30.08 12.54 30.25 12.40L30.25 12.40L30.25 12.40Q30.41 12.26 30.53 12.12L30.53 12.12L30.53 12.12Q30.65 11.98 30.71 11.92L30.71 11.92L30.71 7.92L30.71 7.92Q30.71 7.86 30.70 7.79L30.70 7.79L30.70 7.79Q30.69 7.72 30.67 7.65L30.67 7.65L30.67 7.65Q30.64 7.59 30.58 7.55L30.58 7.55L30.58 7.55Q30.53 7.51 30.43 7.51L30.43 7.51L30.43 7.51Q30.30 7.51 30.20 7.60L30.20 7.60L30.20 7.60Q30.09 7.69 30.01 7.79L30.01 7.79L29.84 7.64L29.84 7.64Q29.94 7.50 30.10 7.32L30.10 7.32L30.10 7.32Q30.25 7.15 30.47 6.99L30.47 6.99L30.47 6.99Q30.69 6.84 30.97 6.73L30.97 6.73L30.97 6.73Q31.25 6.62 31.60 6.62L31.60 6.62L31.60 6.62Q31.90 6.62 32.13 6.70L32.13 6.70L32.13 6.70Q32.35 6.78 32.50 6.91L32.50 6.91L32.50 6.91Q32.66 7.05 32.73 7.23L32.73 7.23L32.73 7.23Q32.81 7.41 32.81 7.62L32.81 7.62ZM40.44 8.54L40.44 13.12L40.44 13.12Q40.44 13.21 40.41 13.33L40.41 13.33L40.41 13.33Q40.39 13.45 40.28 13.56L40.28 13.56L40.28 13.56Q40.17 13.67 39.96 13.75L39.96 13.75L39.96 13.75Q39.75 13.83 39.39 13.83L39.39 13.83L39.39 13.83Q39.03 13.83 38.82 13.74L38.82 13.74L38.82 13.74Q38.61 13.66 38.50 13.54L38.50 13.54L38.50 13.54Q38.40 13.43 38.37 13.30L38.37 13.30L38.37 13.30Q38.34 13.18 38.34 13.10L38.34 13.10L38.34 8.27L38.34 8.27Q38.34 8.18 38.32 8.08L38.32 8.08L38.32 8.08Q38.29 7.98 38.23 7.90L38.23 7.90L38.23 7.90Q38.18 7.81 38.10 7.76L38.10 7.76L38.10 7.76Q38.01 7.71 37.91 7.71L37.91 7.71L37.91 7.71Q37.72 7.71 37.54 7.82L37.54 7.82L37.54 7.82Q37.37 7.92 37.21 8.06L37.21 8.06L37.21 8.06Q37.06 8.20 36.94 8.33L36.94 8.33L36.94 8.33Q36.83 8.47 36.78 8.54L36.78 8.54L36.78 13.12L36.78 13.12Q36.78 13.21 36.76 13.33L36.76 13.33L36.76 13.33Q36.73 13.45 36.62 13.56L36.62 13.56L36.62 13.56Q36.52 13.67 36.31 13.75L36.31 13.75L36.31 13.75Q36.10 13.83 35.74 13.83L35.74 13.83L35.74 13.83Q35.38 13.83 35.17 13.74L35.17 13.74L35.17 13.74Q34.96 13.66 34.85 13.54L34.85 13.54L34.85 13.54Q34.74 13.43 34.71 13.30L34.71 13.30L34.71 13.30Q34.69 13.18 34.69 13.10L34.69 13.10L34.69 7.83L34.69 7.83Q34.69 7.63 34.59 7.48L34.59 7.48L34.59 7.48Q34.50 7.33 34.28 7.33L34.28 7.33L34.28 7.33Q34.17 7.33 34.08 7.38L34.08 7.38L34.08 7.38Q34.00 7.42 33.91 7.49L33.91 7.49L33.76 7.32L33.76 7.32Q33.92 7.19 34.11 7.06L34.11 7.06L34.11 7.06Q34.31 6.94 34.54 6.84L34.54 6.84L34.54 6.84Q34.76 6.75 35.02 6.69L35.02 6.69L35.02 6.69Q35.28 6.62 35.57 6.62L35.57 6.62L35.57 6.62Q36.01 6.62 36.26 6.77L36.26 6.77L36.26 6.77Q36.50 6.92 36.62 7.12L36.62 7.12L36.62 7.12Q36.74 7.33 36.76 7.55L36.76 7.55L36.76 7.55Q36.78 7.77 36.78 7.92L36.78 7.92L36.78 7.92Q37.11 7.56 37.47 7.27L37.47 7.27L37.47 7.27Q37.63 7.15 37.81 7.03L37.81 7.03L37.81 7.03Q37.99 6.92 38.18 6.83L38.18 6.83L38.18 6.83Q38.37 6.73 38.58 6.68L38.58 6.68L38.58 6.68Q38.78 6.62 38.99 6.62L38.99 6.62L38.99 6.62Q39.38 6.62 39.66 6.77L39.66 6.77L39.66 6.77Q39.94 6.91 40.11 7.11L40.11 7.11L40.11 7.11Q40.28 7.31 40.36 7.54L40.36 7.54L40.36 7.54Q40.44 7.76 40.44 7.92L40.44 7.92L40.44 7.92Q40.77 7.56 41.13 7.27L41.13 7.27L41.13 7.27Q41.28 7.15 41.46 7.03L41.46 7.03L41.46 7.03Q41.64 6.92 41.83 6.83L41.83 6.83L41.83 6.83Q42.03 6.73 42.23 6.68L42.23 6.68L42.23 6.68Q42.43 6.62 42.64 6.62L42.64 6.62L42.64 6.62Q43.03 6.62 43.31 6.77L43.31 6.77L43.31 6.77Q43.59 6.92 43.76 7.16L43.76 7.16L43.76 7.16Q43.93 7.40 44.01 7.70L44.01 7.70L44.01 7.70Q44.09 8.00 44.09 8.30L44.09 8.30L44.09 12.53L44.09 12.53Q44.09 12.59 44.10 12.66L44.10 12.66L44.10 12.66Q44.11 12.74 44.13 12.80L44.13 12.80L44.13 12.80Q44.16 12.87 44.22 12.91L44.22 12.91L44.22 12.91Q44.28 12.95 44.37 12.95L44.37 12.95L44.37 12.95Q44.50 12.95 44.60 12.85L44.60 12.85L44.60 12.85Q44.71 12.76 44.80 12.67L44.80 12.67L44.96 12.81L44.96 12.81Q44.86 12.95 44.71 13.13L44.71 13.13L44.71 13.13Q44.55 13.30 44.33 13.46L44.33 13.46L44.33 13.46Q44.12 13.62 43.84 13.72L43.84 13.72L43.84 13.72Q43.55 13.83 43.20 13.83L43.20 13.83L43.20 13.83Q42.90 13.83 42.67 13.75L42.67 13.75L42.67 13.75Q42.45 13.67 42.30 13.54L42.30 13.54L42.30 13.54Q42.14 13.41 42.07 13.22L42.07 13.22L42.07 13.22Q41.99 13.04 41.99 12.84L41.99 12.84L41.99 8.27L41.99 8.27Q41.99 8.18 41.97 8.08L41.97 8.08L41.97 8.08Q41.94 7.98 41.89 7.90L41.89 7.90L41.89 7.90Q41.84 7.81 41.75 7.76L41.75 7.76L41.75 7.76Q41.67 7.71 41.56 7.71L41.56 7.71L41.56 7.71Q41.38 7.71 41.20 7.82L41.20 7.82L41.20 7.82Q41.02 7.92 40.86 8.06L40.86 8.06L40.86 8.06Q40.71 8.20 40.60 8.33L40.60 8.33L40.60 8.33Q40.49 8.47 40.44 8.54L40.44 8.54ZM53.44 4.09L53.44 4.09L53.44 4.09Q53.25 4.09 53.01 4.16L53.01 4.16L53.01 4.16Q52.76 4.24 52.50 4.45L52.50 4.45L52.50 4.45Q52.25 4.66 52.00 5.03L52.00 5.03L52.00 5.03Q51.75 5.41 51.56 6.01L51.56 6.01L51.56 6.01Q51.37 6.60 51.25 7.46L51.25 7.46L51.25 7.46Q51.13 8.31 51.13 9.47L51.13 9.47L51.13 9.47Q51.13 10.58 51.25 11.40L51.25 11.40L51.25 11.40Q51.37 12.21 51.57 12.78L51.57 12.78L51.57 12.78Q51.77 13.35 52.03 13.71L52.03 13.71L52.03 13.71Q52.29 14.08 52.58 14.28L52.58 14.28L52.58 14.28Q52.86 14.48 53.15 14.55L53.15 14.55L53.15 14.55Q53.44 14.63 53.69 14.63L53.69 14.63L53.69 14.63Q53.96 14.63 54.23 14.56L54.23 14.56L54.23 14.56Q54.50 14.49 54.77 14.36L54.77 14.36L54.77 14.36Q55.03 14.23 55.27 14.05L55.27 14.05L55.27 14.05Q55.51 13.86 55.72 13.62L55.72 13.62L56.03 13.93L56.03 13.93Q55.82 14.18 55.54 14.45L55.54 14.45L55.54 14.45Q55.25 14.71 54.87 14.93L54.87 14.93L54.87 14.93Q54.49 15.14 54.02 15.28L54.02 15.28L54.02 15.28Q53.55 15.42 52.97 15.42L52.97 15.42L52.97 15.42Q52.08 15.42 51.31 15.07L51.31 15.07L51.31 15.07Q50.54 14.73 49.97 14.01L49.97 14.01L49.97 14.01Q49.40 13.29 49.07 12.16L49.07 12.16L49.07 12.16Q48.75 11.03 48.75 9.46L48.75 9.46L48.75 9.46Q48.75 7.98 49.09 6.87L49.09 6.87L49.09 6.87Q49.43 5.76 50.02 5.01L50.02 5.01L50.02 5.01Q50.61 4.26 51.40 3.88L51.40 3.88L51.40 3.88Q52.19 3.50 53.09 3.50L53.09 3.50L53.09 3.50Q53.68 3.50 54.17 3.61L54.17 3.61L54.17 3.61Q54.66 3.73 55.02 3.94L55.02 3.94L55.02 3.94Q55.37 4.16 55.57 4.47L55.57 4.47L55.57 4.47Q55.76 4.79 55.76 5.20L55.76 5.20L55.76 5.20Q55.76 5.38 55.70 5.58L55.70 5.58L55.70 5.58Q55.64 5.78 55.51 5.95L55.51 5.95L55.51 5.95Q55.38 6.12 55.20 6.22L55.20 6.22L55.20 6.22Q55.02 6.33 54.77 6.33L54.77 6.33L54.77 6.33Q54.55 6.33 54.43 6.23L54.43 6.23L54.43 6.23Q54.31 6.14 54.25 5.98L54.25 5.98L54.25 5.98Q54.20 5.82 54.18 5.62L54.18 5.62L54.18 5.62Q54.16 5.42 54.15 5.21L54.15 5.21L54.15 5.21Q54.15 5.00 54.12 4.80L54.12 4.80L54.12 4.80Q54.10 4.59 54.03 4.44L54.03 4.44L54.03 4.44Q53.96 4.28 53.82 4.18L53.82 4.18L53.82 4.18Q53.68 4.09 53.44 4.09ZM62.64 7.62L62.64 12.53L62.64 12.53Q62.64 12.59 62.65 12.66L62.65 12.66L62.65 12.66Q62.66 12.74 62.69 12.80L62.69 12.80L62.69 12.80Q62.71 12.87 62.77 12.91L62.77 12.91L62.77 12.91Q62.82 12.95 62.92 12.95L62.92 12.95L62.92 12.95Q63.05 12.95 63.16 12.85L63.16 12.85L63.16 12.85Q63.26 12.76 63.35 12.67L63.35 12.67L63.51 12.81L63.51 12.81Q63.41 12.95 63.26 13.13L63.26 13.13L63.26 13.13Q63.10 13.30 62.88 13.46L62.88 13.46L62.88 13.46Q62.67 13.62 62.38 13.72L62.38 13.72L62.38 13.72Q62.10 13.83 61.75 13.83L61.75 13.83L61.75 13.83Q61.45 13.83 61.23 13.75L61.23 13.75L61.23 13.75Q61.00 13.67 60.85 13.54L60.85 13.54L60.85 13.54Q60.70 13.41 60.62 13.22L60.62 13.22L60.62 13.22Q60.55 13.04 60.55 12.84L60.55 12.84L60.55 12.53L60.55 12.53Q60.20 12.90 59.83 13.18L59.83 13.18L59.83 13.18Q59.66 13.30 59.48 13.42L59.48 13.42L59.48 13.42Q59.29 13.54 59.10 13.63L59.10 13.63L59.10 13.63Q58.90 13.72 58.69 13.77L58.69 13.77L58.69 13.77Q58.47 13.83 58.26 13.83L58.26 13.83L58.26 13.83Q57.85 13.83 57.56 13.68L57.56 13.68L57.56 13.68Q57.27 13.54 57.09 13.30L57.09 13.30L57.09 13.30Q56.92 13.06 56.83 12.76L56.83 12.76L56.83 12.76Q56.75 12.46 56.75 12.15L56.75 12.15L56.75 7.92L56.75 7.92Q56.75 7.86 56.75 7.79L56.75 7.79L56.75 7.79Q56.74 7.72 56.71 7.65L56.71 7.65L56.71 7.65Q56.68 7.59 56.63 7.55L56.63 7.55L56.63 7.55Q56.57 7.51 56.47 7.51L56.47 7.51L56.47 7.51Q56.35 7.51 56.24 7.60L56.24 7.60L56.24 7.60Q56.14 7.69 56.05 7.79L56.05 7.79L55.88 7.64L55.88 7.64Q55.99 7.50 56.14 7.32L56.14 7.32L56.14 7.32Q56.29 7.15 56.51 6.99L56.51 6.99L56.51 6.99Q56.73 6.84 57.02 6.73L57.02 6.73L57.02 6.73Q57.30 6.62 57.65 6.62L57.65 6.62L57.65 6.62Q57.95 6.62 58.17 6.70L58.17 6.70L58.17 6.70Q58.40 6.78 58.55 6.91L58.55 6.91L58.55 6.91Q58.70 7.05 58.78 7.23L58.78 7.23L58.78 7.23Q58.85 7.41 58.85 7.62L58.85 7.62L58.85 12.18L58.85 12.18Q58.85 12.28 58.88 12.38L58.88 12.38L58.88 12.38Q58.91 12.48 58.97 12.56L58.97 12.56L58.97 12.56Q59.03 12.64 59.12 12.69L59.12 12.69L59.12 12.69Q59.21 12.74 59.33 12.74L59.33 12.74L59.33 12.74Q59.53 12.74 59.73 12.64L59.73 12.64L59.73 12.64Q59.92 12.54 60.09 12.40L60.09 12.40L60.09 12.40Q60.25 12.26 60.37 12.12L60.37 12.12L60.37 12.12Q60.49 11.98 60.55 11.92L60.55 11.92L60.55 7.92L60.55 7.92Q60.55 7.86 60.54 7.79L60.54 7.79L60.54 7.79Q60.53 7.72 60.50 7.65L60.50 7.65L60.50 7.65Q60.48 7.59 60.42 7.55L60.42 7.55L60.42 7.55Q60.37 7.51 60.27 7.51L60.27 7.51L60.27 7.51Q60.14 7.51 60.04 7.60L60.04 7.60L60.04 7.60Q59.93 7.69 59.85 7.79L59.85 7.79L59.68 7.64L59.68 7.64Q59.78 7.50 59.93 7.32L59.93 7.32L59.93 7.32Q60.09 7.15 60.31 6.99L60.31 6.99L60.31 6.99Q60.53 6.84 60.81 6.73L60.81 6.73L60.81 6.73Q61.09 6.62 61.44 6.62L61.44 6.62L61.44 6.62Q61.74 6.62 61.97 6.70L61.97 6.70L61.97 6.70Q62.19 6.78 62.34 6.91L62.34 6.91L62.34 6.91Q62.49 7.05 62.57 7.23L62.57 7.23L62.57 7.23Q62.64 7.41 62.64 7.62L62.64 7.62ZM64.52 16.50L64.52 7.83L64.52 7.83Q64.52 7.63 64.43 7.48L64.43 7.48L64.43 7.48Q64.34 7.33 64.12 7.33L64.12 7.33L64.12 7.33Q64.00 7.33 63.92 7.38L63.92 7.38L63.92 7.38Q63.84 7.42 63.75 7.49L63.75 7.49L63.60 7.32L63.60 7.32Q63.76 7.19 63.95 7.06L63.95 7.06L63.95 7.06Q64.15 6.94 64.37 6.84L64.37 6.84L64.37 6.84Q64.60 6.75 64.86 6.69L64.86 6.69L64.86 6.69Q65.12 6.62 65.41 6.62L65.41 6.62L65.41 6.62Q65.71 6.62 65.93 6.72L65.93 6.72L65.93 6.72Q66.15 6.82 66.30 6.95L66.30 6.95L66.30 6.95Q66.45 7.08 66.52 7.23L66.52 7.23L66.52 7.23Q66.60 7.38 66.61 7.48L66.61 7.48L66.61 7.48Q66.75 7.29 66.93 7.13L66.93 7.13L66.93 7.13Q67.12 6.97 67.34 6.86L67.34 6.86L67.34 6.86Q67.57 6.75 67.82 6.69L67.82 6.69L67.82 6.69Q68.07 6.62 68.33 6.62L68.33 6.62L68.33 6.62Q68.88 6.62 69.32 6.85L69.32 6.85L69.32 6.85Q69.77 7.08 70.09 7.52L70.09 7.52L70.09 7.52Q70.40 7.96 70.57 8.62L70.57 8.62L70.57 8.62Q70.75 9.28 70.75 10.14L70.75 10.14L70.75 10.14Q70.75 11.14 70.54 11.84L70.54 11.84L70.54 11.84Q70.33 12.54 69.99 12.98L69.99 12.98L69.99 12.98Q69.65 13.43 69.22 13.63L69.22 13.63L69.22 13.63Q68.78 13.83 68.33 13.83L68.33 13.83L68.33 13.83Q67.96 13.83 67.67 13.75L67.67 13.75L67.67 13.75Q67.39 13.68 67.18 13.57L67.18 13.57L67.18 13.57Q66.98 13.46 66.84 13.35L66.84 13.35L66.84 13.35Q66.71 13.23 66.62 13.16L66.62 13.16L66.62 16.50L66.62 16.50Q66.62 16.58 66.60 16.71L66.60 16.71L66.60 16.71Q66.57 16.83 66.46 16.94L66.46 16.94L66.46 16.94Q66.36 17.06 66.15 17.14L66.15 17.14L66.15 17.14Q65.94 17.22 65.58 17.22L65.58 17.22L65.58 17.22Q65.21 17.22 65.01 17.13L65.01 17.13L65.01 17.13Q64.80 17.05 64.69 16.93L64.69 16.93L64.69 16.93Q64.58 16.81 64.55 16.69L64.55 16.69L64.55 16.69Q64.52 16.57 64.52 16.50L64.52 16.50ZM66.62 8.37L66.62 12.18L66.62 12.18Q66.62 12.24 66.67 12.37L66.67 12.37L66.67 12.37Q66.72 12.51 66.82 12.65L66.82 12.65L66.82 12.65Q66.92 12.80 67.08 12.91L67.08 12.91L67.08 12.91Q67.25 13.02 67.48 13.02L67.48 13.02L67.48 13.02Q67.78 13.02 67.99 12.79L67.99 12.79L67.99 12.79Q68.20 12.56 68.34 12.17L68.34 12.17L68.34 12.17Q68.48 11.78 68.54 11.26L68.54 11.26L68.54 11.26Q68.60 10.73 68.60 10.14L68.60 10.14L68.60 10.14Q68.60 9.41 68.52 8.90L68.52 8.90L68.52 8.90Q68.44 8.39 68.29 8.08L68.29 8.08L68.29 8.08Q68.14 7.77 67.93 7.63L67.93 7.63L67.93 7.63Q67.72 7.49 67.46 7.49L67.46 7.49L67.46 7.49Q67.31 7.49 67.16 7.58L67.16 7.58L67.16 7.58Q67.01 7.66 66.89 7.79L66.89 7.79L66.89 7.79Q66.77 7.92 66.70 8.07L66.70 8.07L66.70 8.07Q66.62 8.23 66.62 8.37L66.62 8.37ZM76.38 8.99L76.38 8.99L76.38 8.99Q76.17 8.99 76.03 8.92L76.03 8.92L76.03 8.92Q75.89 8.86 75.80 8.75L75.80 8.75L75.80 8.75Q75.71 8.64 75.67 8.51L75.67 8.51L75.67 8.51Q75.63 8.37 75.63 8.23L75.63 8.23L75.63 8.23Q75.63 8.05 75.65 7.88L75.65 7.88L75.65 7.88Q75.67 7.70 75.66 7.57L75.66 7.57L75.66 7.57Q75.64 7.43 75.55 7.35L75.55 7.35L75.55 7.35Q75.46 7.27 75.24 7.27L75.24 7.27L75.24 7.27Q75.00 7.27 74.73 7.40L74.73 7.40L74.73 7.40Q74.46 7.54 74.25 7.83L74.25 7.83L74.25 7.83Q74.03 8.13 73.88 8.59L73.88 8.59L73.88 8.59Q73.74 9.05 73.74 9.70L73.74 9.70L73.74 9.70Q73.74 10.42 73.87 11.01L73.87 11.01L73.87 11.01Q74.01 11.60 74.27 12.02L74.27 12.02L74.27 12.02Q74.54 12.43 74.94 12.66L74.94 12.66L74.94 12.66Q75.33 12.89 75.87 12.89L75.87 12.89L75.87 12.89Q76.10 12.89 76.32 12.84L76.32 12.84L76.32 12.84Q76.54 12.78 76.73 12.69L76.73 12.69L76.73 12.69Q76.92 12.59 77.09 12.47L77.09 12.47L77.09 12.47Q77.27 12.34 77.43 12.20L77.43 12.20L77.60 12.36L77.60 12.36Q77.44 12.57 77.20 12.82L77.20 12.82L77.20 12.82Q76.95 13.08 76.60 13.30L76.60 13.30L76.60 13.30Q76.25 13.52 75.79 13.67L75.79 13.67L75.79 13.67Q75.33 13.82 74.73 13.82L74.73 13.82L74.73 13.82Q74.14 13.82 73.57 13.59L73.57 13.59L73.57 13.59Q73.01 13.36 72.57 12.92L72.57 12.92L72.57 12.92Q72.13 12.48 71.87 11.86L71.87 11.86L71.87 11.86Q71.61 11.23 71.61 10.43L71.61 10.43L71.61 10.43Q71.61 9.81 71.76 9.29L71.76 9.29L71.76 9.29Q71.92 8.76 72.19 8.34L72.19 8.34L72.19 8.34Q72.46 7.92 72.82 7.59L72.82 7.59L72.82 7.59Q73.18 7.27 73.58 7.06L73.58 7.06L73.58 7.06Q73.97 6.84 74.39 6.73L74.39 6.73L74.39 6.73Q74.80 6.62 75.18 6.62L75.18 6.62L75.18 6.62Q75.69 6.62 76.06 6.74L76.06 6.74L76.06 6.74Q76.44 6.86 76.69 7.05L76.69 7.05L76.69 7.05Q76.94 7.24 77.06 7.49L77.06 7.49L77.06 7.49Q77.18 7.74 77.18 8.00L77.18 8.00L77.18 8.00Q77.18 8.20 77.13 8.38L77.13 8.38L77.13 8.38Q77.08 8.57 76.98 8.70L76.98 8.70L76.98 8.70Q76.88 8.83 76.73 8.91L76.73 8.91L76.73 8.91Q76.58 8.99 76.38 8.99ZM81.60 11.85L81.60 10.18L81.60 10.18Q81.60 10.01 81.49 9.92L81.49 9.92L81.49 9.92Q81.38 9.83 81.21 9.83L81.21 9.83L81.21 9.83Q80.97 9.83 80.76 9.94L80.76 9.94L80.76 9.94Q80.54 10.05 80.38 10.26L80.38 10.26L80.38 10.26Q80.21 10.47 80.12 10.78L80.12 10.78L80.12 10.78Q80.02 11.09 80.02 11.50L80.02 11.50L80.02 11.50Q80.02 11.90 80.08 12.16L80.08 12.16L80.08 12.16Q80.14 12.42 80.24 12.57L80.24 12.57L80.24 12.57Q80.34 12.73 80.47 12.79L80.47 12.79L80.47 12.79Q80.60 12.85 80.74 12.85L80.74 12.85L80.74 12.85Q80.92 12.85 81.07 12.76L81.07 12.76L81.07 12.76Q81.23 12.67 81.35 12.52L81.35 12.52L81.35 12.52Q81.46 12.38 81.53 12.20L81.53 12.20L81.53 12.20Q81.60 12.02 81.60 11.85L81.60 11.85ZM80.51 7.18L80.51 7.18L80.51 7.18Q80.28 7.18 80.08 7.24L80.08 7.24L80.08 7.24Q79.88 7.29 79.74 7.38L79.74 7.38L79.74 7.38Q79.60 7.46 79.52 7.56L79.52 7.56L79.52 7.56Q79.43 7.66 79.43 7.75L79.43 7.75L79.43 7.75Q79.43 7.85 79.54 7.89L79.54 7.89L79.54 7.89Q79.65 7.94 79.78 7.99L79.78 7.99L79.78 7.99Q79.91 8.05 80.01 8.16L80.01 8.16L80.01 8.16Q80.12 8.26 80.12 8.48L80.12 8.48L80.12 8.48Q80.12 8.63 80.06 8.75L80.06 8.75L80.06 8.75Q80.00 8.87 79.90 8.96L79.90 8.96L79.90 8.96Q79.80 9.05 79.67 9.10L79.67 9.10L79.67 9.10Q79.54 9.15 79.39 9.15L79.39 9.15L79.39 9.15Q79.01 9.15 78.77 8.89L78.77 8.89L78.77 8.89Q78.54 8.63 78.54 8.20L78.54 8.20L78.54 8.20Q78.54 7.79 78.76 7.49L78.76 7.49L78.76 7.49Q78.98 7.19 79.33 7L79.33 7L79.33 7Q79.68 6.81 80.12 6.72L80.12 6.72L80.12 6.72Q80.57 6.62 81.01 6.62L81.01 6.62L81.01 6.62Q81.55 6.62 82.03 6.74L82.03 6.74L82.03 6.74Q82.52 6.86 82.89 7.11L82.89 7.11L82.89 7.11Q83.26 7.36 83.48 7.75L83.48 7.75L83.48 7.75Q83.71 8.14 83.71 8.70L83.71 8.70L83.71 12.56L83.71 12.56Q83.71 12.62 83.71 12.69L83.71 12.69L83.71 12.69Q83.72 12.77 83.75 12.83L83.75 12.83L83.75 12.83Q83.77 12.89 83.83 12.93L83.83 12.93L83.83 12.93Q83.88 12.97 83.99 12.97L83.99 12.97L83.99 12.97Q84.11 12.97 84.22 12.88L84.22 12.88L84.22 12.88Q84.32 12.79 84.40 12.69L84.40 12.69L84.57 12.84L84.57 12.84Q84.47 12.98 84.33 13.15L84.33 13.15L84.33 13.15Q84.18 13.32 83.98 13.47L83.98 13.47L83.98 13.47Q83.77 13.62 83.50 13.73L83.50 13.73L83.50 13.73Q83.23 13.83 82.88 13.83L82.88 13.83L82.88 13.83Q82.45 13.83 82.11 13.57L82.11 13.57L82.11 13.57Q81.78 13.32 81.68 12.78L81.68 12.78L81.68 12.78Q81.46 13.08 81.22 13.28L81.22 13.28L81.22 13.28Q80.99 13.47 80.74 13.60L80.74 13.60L80.74 13.60Q80.49 13.72 80.24 13.77L80.24 13.77L80.24 13.77Q79.99 13.83 79.74 13.83L79.74 13.83L79.74 13.83Q79.41 13.83 79.11 13.73L79.11 13.73L79.11 13.73Q78.80 13.62 78.56 13.40L78.56 13.40L78.56 13.40Q78.31 13.18 78.17 12.82L78.17 12.82L78.17 12.82Q78.02 12.47 78.02 11.96L78.02 11.96L78.02 11.96Q78.02 11.33 78.26 10.94L78.26 10.94L78.26 10.94Q78.51 10.54 78.91 10.27L78.91 10.27L78.91 10.27Q79.31 10.00 79.82 9.81L79.82 9.81L79.82 9.81Q80.33 9.62 80.86 9.41L80.86 9.41L80.86 9.41Q81.26 9.25 81.44 8.94L81.44 8.94L81.44 8.94Q81.62 8.63 81.62 8.30L81.62 8.30L81.62 8.30Q81.62 7.79 81.32 7.49L81.32 7.49L81.32 7.49Q81.03 7.18 80.51 7.18ZM87.61 4.21L87.61 8.48L87.61 8.48Q87.85 8.16 88.12 7.83L88.12 7.83L88.12 7.83Q88.40 7.50 88.71 7.23L88.71 7.23L88.71 7.23Q89.02 6.97 89.39 6.79L89.39 6.79L89.39 6.79Q89.76 6.62 90.20 6.62L90.20 6.62L90.20 6.62Q90.59 6.62 90.85 6.78L90.85 6.78L90.85 6.78Q91.11 6.93 91.27 7.15L91.27 7.15L91.27 7.15Q91.43 7.36 91.50 7.59L91.50 7.59L91.50 7.59Q91.56 7.83 91.56 7.99L91.56 7.99L91.56 7.99Q91.56 8.29 91.48 8.62L91.48 8.62L91.48 8.62Q91.40 8.94 91.22 9.26L91.22 9.26L91.22 9.26Q91.03 9.58 90.71 9.87L90.71 9.87L90.71 9.87Q90.40 10.17 89.92 10.42L89.92 10.42L89.92 10.42Q90.56 11.78 91.17 12.76L91.17 12.76L91.17 12.76Q91.78 13.74 92.34 14.37L92.34 14.37L92.34 14.37Q92.91 15.00 93.43 15.31L93.43 15.31L93.43 15.31Q93.95 15.61 94.42 15.61L94.42 15.61L94.42 15.61Q94.50 15.61 94.58 15.59L94.58 15.59L94.58 15.59Q94.66 15.57 94.73 15.54L94.73 15.54L94.73 15.54Q94.81 15.51 94.89 15.47L94.89 15.47L95.02 15.71L95.02 15.71Q94.83 15.81 94.64 15.90L94.64 15.90L94.64 15.90Q94.45 16.00 94.21 16.06L94.21 16.06L94.21 16.06Q93.96 16.13 93.64 16.17L93.64 16.17L93.64 16.17Q93.32 16.21 92.87 16.21L92.87 16.21L92.87 16.21Q92.47 16.21 92.08 16.12L92.08 16.12L92.08 16.12Q91.68 16.02 91.29 15.78L91.29 15.78L91.29 15.78Q90.89 15.53 90.48 15.12L90.48 15.12L90.48 15.12Q90.08 14.71 89.65 14.08L89.65 14.08L89.65 14.08Q89.22 13.45 88.77 12.58L88.77 12.58L88.77 12.58Q88.32 11.72 87.83 10.55L87.83 10.55L87.83 10.55Q88.49 10.07 88.87 9.66L88.87 9.66L88.87 9.66Q89.24 9.24 89.43 8.91L89.43 8.91L89.43 8.91Q89.63 8.57 89.67 8.31L89.67 8.31L89.67 8.31Q89.72 8.05 89.72 7.87L89.72 7.87L89.72 7.87Q89.72 7.84 89.71 7.78L89.71 7.78L89.71 7.78Q89.71 7.71 89.67 7.65L89.67 7.65L89.67 7.65Q89.63 7.59 89.56 7.54L89.56 7.54L89.56 7.54Q89.49 7.49 89.36 7.49L89.36 7.49L89.36 7.49Q89.11 7.49 88.85 7.71L88.85 7.71L88.85 7.71Q88.59 7.92 88.35 8.24L88.35 8.24L88.35 8.24Q88.12 8.56 87.92 8.92L87.92 8.92L87.92 8.92Q87.73 9.29 87.61 9.59L87.61 9.59L87.61 13.12L87.61 13.12Q87.61 13.21 87.58 13.33L87.58 13.33L87.58 13.33Q87.55 13.45 87.44 13.56L87.44 13.56L87.44 13.56Q87.32 13.67 87.11 13.75L87.11 13.75L87.11 13.75Q86.89 13.83 86.53 13.83L86.53 13.83L86.53 13.83Q86.17 13.83 85.96 13.74L85.96 13.74L85.96 13.74Q85.76 13.66 85.66 13.54L85.66 13.54L85.66 13.54Q85.56 13.43 85.53 13.30L85.53 13.30L85.53 13.30Q85.51 13.18 85.51 13.10L85.51 13.10L85.51 4.29L85.51 4.29Q85.51 4.09 85.42 3.94L85.42 3.94L85.42 3.94Q85.33 3.79 85.11 3.79L85.11 3.79L85.11 3.79Q84.99 3.79 84.91 3.83L84.91 3.83L84.91 3.83Q84.82 3.87 84.72 3.94L84.72 3.94L84.59 3.78L84.59 3.78Q84.75 3.65 84.94 3.52L84.94 3.52L84.94 3.52Q85.13 3.40 85.36 3.30L85.36 3.30L85.36 3.30Q85.59 3.21 85.85 3.14L85.85 3.14L85.85 3.14Q86.11 3.08 86.39 3.08L86.39 3.08L86.39 3.08Q86.84 3.08 87.08 3.20L87.08 3.20L87.08 3.20Q87.33 3.32 87.45 3.50L87.45 3.50L87.45 3.50Q87.56 3.67 87.59 3.87L87.59 3.87L87.59 3.87Q87.61 4.06 87.61 4.21L87.61 4.21ZM97.25 8.99L94.55 10.58L94.55 10.58Q94.55 10.80 94.62 11.06L94.62 11.06L94.62 11.06Q94.68 11.31 94.81 11.57L94.81 11.57L94.81 11.57Q94.93 11.83 95.11 12.07L95.11 12.07L95.11 12.07Q95.29 12.30 95.53 12.49L95.53 12.49L95.53 12.49Q95.76 12.67 96.05 12.78L96.05 12.78L96.05 12.78Q96.34 12.89 96.68 12.89L96.68 12.89L96.68 12.89Q96.92 12.89 97.13 12.84L97.13 12.84L97.13 12.84Q97.33 12.78 97.51 12.69L97.51 12.69L97.51 12.69Q97.69 12.59 97.85 12.47L97.85 12.47L97.85 12.47Q98.01 12.34 98.18 12.20L98.18 12.20L98.35 12.36L98.35 12.36Q98.19 12.57 97.95 12.82L97.95 12.82L97.95 12.82Q97.70 13.08 97.35 13.30L97.35 13.30L97.35 13.30Q97.00 13.52 96.54 13.67L96.54 13.67L96.54 13.67Q96.07 13.82 95.48 13.82L95.48 13.82L95.48 13.82Q94.88 13.82 94.32 13.60L94.32 13.60L94.32 13.60Q93.75 13.38 93.32 12.95L93.32 12.95L93.32 12.95Q92.88 12.52 92.62 11.88L92.62 11.88L92.62 11.88Q92.35 11.24 92.35 10.38L92.35 10.38L92.35 10.38Q92.35 9.75 92.51 9.24L92.51 9.24L92.51 9.24Q92.67 8.72 92.94 8.30L92.94 8.30L92.94 8.30Q93.21 7.88 93.57 7.57L93.57 7.57L93.57 7.57Q93.93 7.25 94.32 7.04L94.32 7.04L94.32 7.04Q94.72 6.84 95.13 6.73L95.13 6.73L95.13 6.73Q95.55 6.62 95.93 6.62L95.93 6.62L95.93 6.62Q96.43 6.62 96.81 6.73L96.81 6.73L96.81 6.73Q97.19 6.84 97.44 7.03L97.44 7.03L97.44 7.03Q97.69 7.21 97.81 7.45L97.81 7.45L97.81 7.45Q97.93 7.70 97.93 7.96L97.93 7.96L97.93 7.96Q97.93 8.29 97.75 8.54L97.75 8.54L97.75 8.54Q97.56 8.80 97.25 8.99L97.25 8.99ZM94.49 10.02L95.93 9.19L95.93 9.19Q96.02 9.14 96.08 9.09L96.08 9.09L96.08 9.09Q96.13 9.04 96.17 8.97L96.17 8.97L96.17 8.97Q96.20 8.89 96.22 8.79L96.22 8.79L96.22 8.79Q96.24 8.68 96.24 8.52L96.24 8.52L96.24 8.52Q96.24 8.35 96.20 8.15L96.20 8.15L96.20 8.15Q96.16 7.94 96.07 7.75L96.07 7.75L96.07 7.75Q95.98 7.57 95.85 7.44L95.85 7.44L95.85 7.44Q95.71 7.32 95.52 7.32L95.52 7.32L95.52 7.32Q95.27 7.32 95.10 7.47L95.10 7.47L95.10 7.47Q94.92 7.62 94.81 7.85L94.81 7.85L94.81 7.85Q94.70 8.08 94.63 8.38L94.63 8.38L94.63 8.38Q94.57 8.67 94.53 8.98L94.53 8.98L94.53 8.98Q94.50 9.28 94.49 9.55L94.49 9.55L94.49 9.55Q94.49 9.83 94.49 10.02L94.49 10.02Z"></path></g> <!----> <g data-v-5f19e91b="" id="df4875b5-0d78-96b3-780d-8f6813f15799" transform="matrix(0.973644510904948,0,0,0.973644510904948,-9.252225340609826,-4.520897157239233)" stroke="none" fill="black"><path d="M89.57 49.398c0-8.578-6.15-15.833-14.48-17.316-1.87-8.959-8.451-16.277-17.15-19.112-.123-4.277-3.634-7.72-7.94-7.72-4.306 0-7.815 3.443-7.938 7.72-8.701 2.834-15.282 10.151-17.152 19.112-8.33 1.483-14.48 8.739-14.48 17.316 0 7.396 4.594 13.729 11.073 16.326l3.179 25.838a1.499 1.499 0 0 0 1.489 1.316H73.881a1.5 1.5 0 0 0 1.49-1.325l3.021-25.791c6.534-2.571 11.178-8.928 11.178-16.364zM49.999 8.25a4.957 4.957 0 0 1 4.952 4.95 4.958 4.958 0 0 1-4.952 4.952 4.957 4.957 0 0 1-4.95-4.952 4.956 4.956 0 0 1 4.95-4.95zM24.64 66.658c1.096.215 2.226.334 3.384.334 1.476 0 2.919-.19 4.315-.541l1.757 23.428h-6.599L24.64 66.658zm37.792-2.477c.708.459 1.442.863 2.199 1.213L62.94 89.879h-6.61l.47-22.271a18.74 18.74 0 0 0 5.632-3.427zm-9.104 25.698h-6.613l-.578-21.415c1.257.262 2.547.41 3.862.41 1.286 0 2.548-.141 3.779-.391l-.45 21.396zM43.112 67.568l.602 22.311h-6.609l-1.833-24.444a17.372 17.372 0 0 0 2.297-1.254 18.647 18.647 0 0 0 5.543 3.387zm29.434 22.311h-6.601l1.621-23.452c1.425.367 2.899.565 4.408.565a17.66 17.66 0 0 0 3.29-.319l-2.718 23.206zm-.571-25.887a14.454 14.454 0 0 1-8.779-2.938 1.5 1.5 0 0 0-1.969.141 15.712 15.712 0 0 1-6.461 3.944l-.02.008a15.859 15.859 0 0 1-4.747.727 15.695 15.695 0 0 1-11.225-4.679 1.502 1.502 0 0 0-1.969-.141 14.46 14.46 0 0 1-8.781 2.938c-8.047 0-14.594-6.547-14.594-14.594 0-7.427 5.557-13.66 12.927-14.497a1.5 1.5 0 0 0 1.311-1.248c1.341-8.193 7.112-14.987 14.885-17.694 1.125 3.027 4.034 5.193 7.447 5.193s6.323-2.166 7.448-5.193c7.771 2.708 13.542 9.502 14.884 17.694a1.5 1.5 0 0 0 1.312 1.248c7.37.837 12.928 7.07 12.928 14.497-.002 8.047-6.55 14.594-14.597 14.594z"></path><path d="M43.963 26.276a2.876 2.876 0 0 0-1.472-.407 2.89 2.89 0 0 0-2.469 1.401l-3.441 5.763a2.856 2.856 0 0 0-.32 2.176 2.876 2.876 0 0 0 2.784 2.172 2.888 2.888 0 0 0 2.468-1.4l3.443-5.765a2.876 2.876 0 0 0-.993-3.94zM68.353 38.618a2.878 2.878 0 0 0-1.318-3.843l-6.03-2.95a2.89 2.89 0 0 0-1.264-.293 2.854 2.854 0 0 0-2.582 1.612 2.851 2.851 0 0 0-.136 2.195 2.85 2.85 0 0 0 1.456 1.647l6.031 2.951c.391.19.826.292 1.26.292a2.856 2.856 0 0 0 2.583-1.611zM51.074 45.371l-5.472 3.886a2.857 2.857 0 0 0-1.172 1.86c-.129.758.044 1.52.49 2.148a2.881 2.881 0 0 0 2.344 1.209c.599 0 1.173-.184 1.663-.531l5.472-3.886a2.848 2.848 0 0 0 1.171-1.862 2.851 2.851 0 0 0-.49-2.145c-.886-1.245-2.759-1.567-4.006-.679zM30.687 49.436l-5.312-4.105c-.5-.387-1.124-.6-1.756-.6-.897 0-1.726.407-2.275 1.116a2.858 2.858 0 0 0-.577 2.122 2.854 2.854 0 0 0 1.092 1.909l5.314 4.107c.5.386 1.124.598 1.755.598.896 0 1.725-.405 2.275-1.116a2.882 2.882 0 0 0-.516-4.031zM73.05 46.718l-5.477 3.887a2.879 2.879 0 0 0-.679 4.006 2.88 2.88 0 0 0 2.345 1.211c.599 0 1.173-.184 1.662-.531l5.477-3.888a2.875 2.875 0 0 0 .678-4.003c-.884-1.249-2.759-1.569-4.006-.682z"></path></g></svg>