<svg data-v-1084b650="" xmlns="http://www.w3.org/2000/svg" viewBox="0 0 300 300"><!----> <!----> <rect data-v-1084b650="" fill="#ffffff" x="0" y="0" width="300px" height="300px" class="logo-background-square"></rect> <!----> <linearGradient data-v-1084b650="" gradientTransform="rotate(25)" id="0f5c0713-26d4-76ec-27fe-a104117618a2" x1="0%" y1="0%" x2="100%" y2="0%"><stop data-v-1084b650="" offset="0%" style="stop-color: rgb(192, 109, 105); stop-opacity: 1;"></stop> <stop data-v-1084b650="" offset="100%" style="stop-color: rgb(210, 176, 92); stop-opacity: 1;"></stop></linearGradient> <g data-v-1084b650="" id="a1d61c70-6070-24a4-8adf-5440b54c23d7" fill="url(#0f5c0713-26d4-76ec-27fe-a104117618a2)" stroke="none" transform="matrix(0.7999999999999998,0,0,0.7999999999999998,30.000021362304707,32.246383666992216)"><svg xmlns="http://www.w3.org/2000/svg" viewBox="0 0 100 100"><path d="M89.57 49.398c0-8.578-6.15-15.833-14.48-17.316-1.87-8.959-8.451-16.277-17.15-19.112-.123-4.277-3.634-7.72-7.94-7.72-4.306 0-7.815 3.443-7.938 7.72-8.701 2.834-15.282 10.151-17.152 19.112-8.33 1.483-14.48 8.739-14.48 17.316 0 7.396 4.594 13.729 11.073 16.326l3.179 25.838a1.499 1.499 0 0 0 1.489 1.316H73.881a1.5 1.5 0 0 0 1.49-1.325l3.021-25.791c6.534-2.571 11.178-8.928 11.178-16.364zM49.999 8.25a4.957 4.957 0 0 1 4.952 4.95 4.958 4.958 0 0 1-4.952 4.952 4.957 4.957 0 0 1-4.95-4.952 4.956 4.956 0 0 1 4.95-4.95zM24.64 66.658c1.096.215 2.226.334 3.384.334 1.476 0 2.919-.19 4.315-.541l1.757 23.428h-6.599L24.64 66.658zm37.792-2.477c.708.459 1.442.863 2.199 1.213L62.94 89.879h-6.61l.47-22.271a18.74 18.74 0 0 0 5.632-3.427zm-9.104 25.698h-6.613l-.578-21.415c1.257.262 2.547.41 3.862.41 1.286 0 2.548-.141 3.779-.391l-.45 21.396zM43.112 67.568l.602 22.311h-6.609l-1.833-24.444a17.372 17.372 0 0 0 2.297-1.254 18.647 18.647 0 0 0 5.543 3.387zm29.434 22.311h-6.601l1.621-23.452c1.425.367 2.899.565 4.408.565a17.66 17.66 0 0 0 3.29-.319l-2.718 23.206zm-.571-25.887a14.454 14.454 0 0 1-8.779-2.938 1.5 1.5 0 0 0-1.969.141 15.712 15.712 0 0 1-6.461 3.944l-.02.008a15.859 15.859 0 0 1-4.747.727 15.695 15.695 0 0 1-11.225-4.679 1.502 1.502 0 0 0-1.969-.141 14.46 14.46 0 0 1-8.781 2.938c-8.047 0-14.594-6.547-14.594-14.594 0-7.427 5.557-13.66 12.927-14.497a1.5 1.5 0 0 0 1.311-1.248c1.341-8.193 7.112-14.987 14.885-17.694 1.125 3.027 4.034 5.193 7.447 5.193s6.323-2.166 7.448-5.193c7.771 2.708 13.542 9.502 14.884 17.694a1.5 1.5 0 0 0 1.312 1.248c7.37.837 12.928 7.07 12.928 14.497-.002 8.047-6.55 14.594-14.597 14.594z"></path><path d="M43.963 26.276a2.876 2.876 0 0 0-1.472-.407 2.89 2.89 0 0 0-2.469 1.401l-3.441 5.763a2.856 2.856 0 0 0-.32 2.176 2.876 2.876 0 0 0 2.784 2.172 2.888 2.888 0 0 0 2.468-1.4l3.443-5.765a2.876 2.876 0 0 0-.993-3.94zM68.353 38.618a2.878 2.878 0 0 0-1.318-3.843l-6.03-2.95a2.89 2.89 0 0 0-1.264-.293 2.854 2.854 0 0 0-2.582 1.612 2.851 2.851 0 0 0-.136 2.195 2.85 2.85 0 0 0 1.456 1.647l6.031 2.951c.391.19.826.292 1.26.292a2.856 2.856 0 0 0 2.583-1.611zM51.074 45.371l-5.472 3.886a2.857 2.857 0 0 0-1.172 1.86c-.129.758.044 1.52.49 2.148a2.881 2.881 0 0 0 2.344 1.209c.599 0 1.173-.184 1.663-.531l5.472-3.886a2.848 2.848 0 0 0 1.171-1.862 2.851 2.851 0 0 0-.49-2.145c-.886-1.245-2.759-1.567-4.006-.679zM30.687 49.436l-5.312-4.105c-.5-.387-1.124-.6-1.756-.6-.897 0-1.726.407-2.275 1.116a2.858 2.858 0 0 0-.577 2.122 2.854 2.854 0 0 0 1.092 1.909l5.314 4.107c.5.386 1.124.598 1.755.598.896 0 1.725-.405 2.275-1.116a2.882 2.882 0 0 0-.516-4.031zM73.05 46.718l-5.477 3.887a2.879 2.879 0 0 0-.679 4.006 2.88 2.88 0 0 0 2.345 1.211c.599 0 1.173-.184 1.662-.531l5.477-3.888a2.875 2.875 0 0 0 .678-4.003c-.884-1.249-2.759-1.569-4.006-.682z"></path></svg></g></svg>